<?xml version="1.0" standalone="no"?>
<!DOCTYPE svg PUBLIC "-//W3C//DTD SVG 20010904//EN"
 "http://www.w3.org/TR/2001/REC-SVG-20010904/DTD/svg10.dtd">
<svg version="1.0" xmlns="http://www.w3.org/2000/svg"
 width="598.000000pt" height="598.000000pt" viewBox="0 0 598.000000 598.000000"
 preserveAspectRatio="xMidYMid meet">
<metadata>
Created by potrace 1.14, written by Peter Selinger 2001-2017
</metadata>
<g transform="translate(0.000000,598.000000) scale(0.100000,-0.100000)"
fill="#000000" stroke="none">
<path d="M805 5959 c-141 -10 -317 -76 -435 -164 -65 -48 -171 -160 -217 -228
-56 -85 -105 -199 -129 -303 -18 -76 -19 -171 -19 -2284 0 -2059 1 -2209 17
-2272 90 -351 328 -592 673 -684 67 -18 164 -18 2255 -21 2382 -4 2266 -6
2433 52 188 66 364 211 469 387 45 76 72 142 102 248 21 75 21 81 23 2255 3
1916 2 2190 -12 2267 -64 369 -323 647 -687 734 -68 16 -215 17 -2228 18
-1185 1 -2196 -2 -2245 -5z m2490 -1429 c312 -29 523 -94 869 -267 185 -93
268 -143 258 -157 -5 -6 -105 -139 -222 -296 -117 -157 -216 -289 -220 -293
-4 -5 -52 14 -106 41 -274 137 -526 206 -801 219 -242 11 -368 -38 -380 -149
-5 -54 20 -98 70 -121 19 -9 217 -62 438 -117 466 -114 590 -154 784 -250 324
-160 454 -337 485 -659 25 -259 -53 -480 -234 -669 -94 -97 -202 -173 -347
-241 -203 -96 -389 -141 -679 -166 -477 -42 -911 41 -1415 269 -94 43 -315
168 -315 178 0 7 403 603 420 621 4 5 81 -28 171 -72 281 -138 558 -217 850
-242 333 -28 529 34 529 168 0 62 -24 97 -89 132 -70 36 -119 50 -361 101
-579 122 -884 242 -1080 427 -173 163 -250 342 -250 583 0 378 215 663 630
833 263 108 656 158 995 127z"/>
</g>
</svg>
